<svg width="158" height="40" viewBox="0 0 158 40" fill="none" xmlns="http://www.w3.org/2000/svg">
<path d="M155.242 32.0046C154.675 32.0046 154.186 31.809 153.775 31.4179C153.384 31.0267 153.189 30.5573 153.189 30.0097C153.189 29.4425 153.384 28.9633 153.775 28.5721C154.186 28.1614 154.675 27.9561 155.242 27.9561C155.79 27.9561 156.259 28.1614 156.65 28.5721C157.042 28.9633 157.237 29.4425 157.237 30.0097C157.237 30.5573 157.042 31.0267 156.65 31.4179C156.259 31.809 155.79 32.0046 155.242 32.0046Z" fill="#4B2804"/>
<path d="M144.071 31.6526C141.646 31.6526 139.886 31.1245 138.79 30.0683C137.715 28.9926 137.177 27.4182 137.177 25.345V11.1163H140.639V25.345C140.639 26.5772 140.912 27.4866 141.46 28.0734C142.027 28.6406 142.898 28.9242 144.071 28.9242H150.643V31.6526H144.071Z" fill="#4B2804"/>
<path d="M127.168 31.6526C124.684 31.6526 122.875 31.1245 121.741 30.0683C120.606 28.9926 120.039 27.4182 120.039 25.345V17.4239C120.039 15.3507 120.606 13.786 121.741 12.7299C122.875 11.6542 124.684 11.1163 127.168 11.1163H134.092V13.8447H127.168C125.917 13.8447 124.988 14.1381 124.381 14.7248C123.794 15.292 123.501 16.1917 123.501 17.4239V20.0349H132.742V22.734H123.501V25.345C123.501 26.5772 123.794 27.4866 124.381 28.0734C124.988 28.6406 125.917 28.9242 127.168 28.9242H134.209V31.6526H127.168Z" fill="#4B2804"/>
<path d="M109.284 32.0046C108.208 32.0046 107.358 31.6917 106.732 31.0658C106.125 30.4399 105.588 29.3349 105.118 27.7507L100.248 11.1163H103.71L108.404 27.692C108.521 28.0832 108.639 28.3668 108.756 28.5428C108.893 28.7188 109.069 28.8068 109.284 28.8068C109.48 28.8068 109.646 28.7188 109.783 28.5428C109.92 28.3668 110.037 28.0832 110.135 27.692L114.829 11.1163H118.291L113.421 27.7507C112.951 29.3349 112.404 30.4399 111.778 31.0658C111.172 31.6917 110.34 32.0046 109.284 32.0046Z" fill="#4B2804"/>
<path d="M96.1524 26.2546H87.7325L86.119 31.6527H82.6572L87.7912 15.0183C88.1237 13.9231 88.466 13.0723 88.818 12.466C89.1896 11.8597 89.6199 11.4294 90.1089 11.1751C90.5978 10.9013 91.2139 10.7644 91.9571 10.7644C92.6808 10.7644 93.2871 10.9013 93.7761 11.1751C94.265 11.4294 94.6953 11.8597 95.0669 12.466C95.4385 13.0723 95.7906 13.9231 96.1231 15.0183L101.228 31.6527H97.766L96.1524 26.2546ZM95.3896 23.6729L92.8373 15.077C92.7199 14.6858 92.5928 14.4022 92.4559 14.2262C92.3385 14.0502 92.1723 13.9622 91.9571 13.9622C91.742 13.9622 91.566 14.0502 91.4291 14.2262C91.2922 14.4022 91.165 14.6858 91.0477 15.077L88.4953 23.6729H95.3896Z" fill="#4B2804"/>
<path d="M80.9914 31.6526H77.3242L75.9453 26.8706C75.6715 25.9122 75.3879 25.169 75.0945 24.6409C74.8012 24.0933 74.3904 23.6825 73.8624 23.4087C73.3538 23.1349 72.6595 22.998 71.7794 22.998H68.2002V31.6526H64.7384V11.1163H73.2169C75.5248 11.1163 77.2459 11.6053 78.3803 12.5832C79.5147 13.5611 80.0819 15.0378 80.0819 17.0132C80.0819 18.4018 79.7298 19.5166 79.0257 20.3576C78.3216 21.1986 77.334 21.7267 76.0627 21.9419C77.021 22.2743 77.7545 22.8415 78.263 23.6434C78.7715 24.4453 79.2213 25.521 79.6125 26.8706L80.9914 31.6526ZM73.2169 20.2696C74.234 20.2696 75.0554 19.9958 75.6813 19.4482C76.3071 18.9005 76.6201 18.1084 76.6201 17.0718C76.6201 16.0157 76.3071 15.2138 75.6813 14.6662C75.0554 14.1185 74.234 13.8447 73.2169 13.8447H68.2002V20.2696H73.2169Z" fill="#4B2804"/>
<path d="M51.6926 13.8447H45.3264V11.1163H61.4914V13.8447H55.1545V31.6526H51.6926V13.8447Z" fill="#4B2804"/>
<path d="M8.077 31.9753C5.76912 31.9753 3.98931 31.4766 2.73758 30.4791C1.48585 29.4621 0.859985 28.0246 0.859985 26.1665C0.859985 25.5407 0.908881 24.9833 1.00667 24.4943L2.1215 18.2454C2.55178 15.8006 3.53947 13.9524 5.08458 12.7006C6.64924 11.4293 8.70287 10.7937 11.2454 10.7937C13.0644 10.7937 14.5606 11.0284 15.7341 11.4978C16.9076 11.9672 17.8366 12.7006 18.5211 13.6981L16.7609 14.9303C16.2133 14.0893 15.4896 13.4732 14.5899 13.082C13.6902 12.6909 12.5559 12.4953 11.1868 12.4953C9.2505 12.4953 7.68583 12.9842 6.49278 13.9621C5.31928 14.9401 4.56628 16.3678 4.23379 18.2454L3.11897 24.4943C3.02118 25.081 2.97228 25.57 2.97228 25.9612C2.97228 27.3694 3.40257 28.4451 4.26313 29.1883C5.14325 29.9119 6.41454 30.2738 8.077 30.2738C9.91548 30.2738 11.4117 29.9413 12.5656 29.2763C13.7391 28.5918 14.4335 27.6627 14.6486 26.4892L14.9713 24.6116C15.0104 24.2987 15.03 24.0738 15.03 23.9369C15.03 23.2915 14.8344 22.7927 14.4432 22.4407C14.0521 22.0886 13.4849 21.9126 12.7417 21.9126H9.22116L9.51454 20.211H13.4751C15.9199 20.211 17.1423 21.2378 17.1423 23.2915C17.1423 23.624 17.1129 23.9956 17.0543 24.4063L16.6729 26.6066C16.3795 28.2886 15.47 29.6088 13.9445 30.5672C12.4385 31.5059 10.4827 31.9753 8.077 31.9753Z" fill="#4B2804"/>
<path d="M28.1177 12.6167L31.2376 13.1501L31.771 10.0301L28.6511 9.49673L28.1177 12.6167ZM28.3673 20.548C26.8386 20.2867 25.4054 19.7697 24.0677 18.997C22.7319 18.2246 21.4785 17.3189 20.3074 16.2798L20.7447 13.722C20.8527 13.0901 21.1701 12.5877 21.6967 12.2148C22.2234 11.8419 22.8037 11.7092 23.4378 11.8166L26.6943 12.3733L27.2839 8.9246C27.3342 8.63045 27.4871 8.3929 27.7427 8.21197C27.9983 8.03104 28.2726 7.96563 28.5658 8.01576L32.3434 8.66157C32.6375 8.71185 32.8751 8.86478 33.056 9.12033C33.2369 9.37589 33.3023 9.65074 33.252 9.9449L32.6624 13.3936L35.919 13.9504C36.5509 14.0584 37.0533 14.3762 37.426 14.9039C37.7987 15.4315 37.9316 16.0109 37.8247 16.642L37.3874 19.1998C35.9384 19.792 34.4553 20.2298 32.9379 20.5134C31.4205 20.798 29.8969 20.8095 28.3673 20.548ZM20.1528 31.0316L20.2744 30.3199C19.6415 30.2117 19.1387 29.8938 18.766 29.3662C18.3933 28.8386 18.2603 28.2597 18.3671 27.6294L20.0217 17.9508C21.122 18.8557 22.2844 19.6453 23.5091 20.3195C24.7341 20.9919 26.036 21.4967 27.415 21.834L27.2906 22.5613C27.2561 22.7635 27.2954 22.9445 27.4087 23.1045C27.522 23.2645 27.6798 23.3613 27.8821 23.3949C28.0843 23.4285 28.2648 23.3896 28.4236 23.278C28.5823 23.1665 28.6791 23.0087 28.714 22.8047L28.8383 22.0774C30.251 22.2173 31.6468 22.1732 33.0257 21.945C34.4056 21.7171 35.7644 21.3585 37.102 20.8693L35.4473 30.548C35.3391 31.1809 35.0212 31.6837 34.4936 32.0564C33.966 32.4292 33.3866 32.5621 32.7554 32.4551L32.6337 33.1668C32.5992 33.3689 32.501 33.526 32.3393 33.638C32.1776 33.75 31.9951 33.7891 31.7918 33.7553C31.6002 33.7226 31.4632 33.621 31.381 33.4507C31.298 33.2793 31.2407 33.1035 31.209 32.9232L31.3309 32.2101L21.6978 30.5633L21.5761 31.2749C21.5415 31.477 21.4434 31.6341 21.2817 31.7461C21.1207 31.8592 20.9382 31.8983 20.7342 31.8635C20.5425 31.8307 20.4051 31.7291 20.322 31.5586C20.2399 31.3873 20.1835 31.2117 20.1528 31.0316Z" fill="#4B2804"/>
</svg>
